<svg xmlns="http://www.w3.org/2000/svg" width="501" height="507" viewBox="0 0 501 507"><path fill="#F9F9F9" d="M1.96160267 506.093489C39.885921 506.093489 72.2523651 498.247078 99.0609349 482.554257 125.869505 466.861436 148.101002 445.937674 165.755426 419.782972 183.40985 393.628269 196.487201 363.223428 204.987479 328.568447 213.487757 293.913467 217.737896 256.96995 217.737896 217.737896L217.737896 0 2.37242984e-14 0 2.37242984e-14 217.737896 115.734558 217.737896C115.734558 239.969393 114.099889 262.527824 110.830551 285.413189 107.561213 308.298553 101.349471 328.895381 92.1953255 347.203673 83.0411797 365.511964 71.2715637 380.223984 56.8864775 391.339733 42.5013912 402.455481 24.1930996 408.013356 1.96160267 408.013356L1.96160267 506.093489ZM284.140234 506.093489C322.064552 506.093489 354.430996 498.247078 381.239566 482.554257 408.048136 466.861436 430.279633 445.937674 447.934057 419.782972 465.588481 393.628269 478.665832 363.223428 487.16611 328.568447 495.666388 293.913467 499.916528 256.96995 499.916528 217.737896L499.916528 0 282.178631 0 282.178631 217.737896 397.913189 217.737896C397.913189 239.969393 396.27852 262.527824 393.009182 285.413189 389.739844 308.298553 383.528102 328.895381 374.373957 347.203673 365.219811 365.511964 353.450195 380.223984 339.065109 391.339733 324.680022 402.455481 306.371731 408.013356 284.140234 408.013356L284.140234 506.093489Z" transform="translate(.1 .2)"/></svg>