<svg xmlns="http://www.w3.org/2000/svg" width="150" height="100" viewBox="0 0 150 100">
  <g fill="none" fill-rule="evenodd">
    <path fill="#EEE" fill-rule="nonzero" d="M12.1889049 11.6455331L9.76512968 5.72420749 7.33746398 11.6455331 12.1889049 11.6455331zM11.7220461 1.02449568L19.2190202 18.6445245C19.2799271 18.7861176 19.2663718 18.9487372 19.1828633 19.0782925 19.0993547 19.2078479 18.9568457 19.2873466 18.8027378 19.2903458L15.3012968 19.2903458 13.6283862 15.1936599 5.90965418 15.1936599 4.24063401 19.2903458.848126801 19.2903458C.692720731 19.2892683.548039217 19.2109303.462193892 19.0813819.376348567 18.9518335.360595416 18.788061.420172911 18.6445245L7.90936599 1.02449568 11.7220461 1.02449568zM20.3317003 10.2099424L20.3317003 10.159366C20.3122078 7.6257894 21.3189001 5.19217162 23.122514 3.41274272 24.9261279 1.63331381 27.3731134.659564808 29.906196.713256484 33.1936599.713256484 35.1778098 1.60417867 37.0802594 3.21873199L34.8432277 5.91873199C34.6795453 6.11256877 34.3910251 6.14021142 34.1935159 5.98097983 32.9650258 4.93347656 31.3916102 4.37896884 29.7778098 4.42478386 26.8521614 4.42478386 24.5334294 7.01195965 24.5334294 10.1165706L24.5334294 10.167147C24.5334294 13.5051873 26.8288184 15.956196 30.0618156 15.956196 31.4071004 15.9981496 32.731473 15.615674 33.8472622 14.8629683L33.8472622 12.2524496 29.8011527 12.2524496 29.8011527 8.77435159 37.7338617 8.77435159 37.7338617 16.7070605C35.5686511 18.5823518 32.7978271 19.6105278 29.9334294 19.6016429 24.2455331 19.6016429 20.3317003 15.6099424 20.3317003 10.2099424M49.6737752 9.89870317C51.6190202 9.89870317 52.7550432 8.85605187 52.7550432 7.31541787L52.7550432 7.2648415C52.7550432 5.54135447 51.5528818 4.65432277 49.5998559 4.65432277L45.6043228 4.65432277 45.6043228 9.89870317 49.6737752 9.89870317zM41.5893372 1.02838617L49.9266571 1.02838617C52.260951 1.02838617 54.0466859 1.67809798 55.2488473 2.88025937 56.3089888 4.00515627 56.8701204 5.51039168 56.8050432 7.05475504L56.8050432 7.10533141C56.8050432 10.0543228 55.2138329 11.906196 52.8912104 12.7659942L56.8556196 18.5628242C56.9551356 18.7056703 56.9661032 18.8922684 56.8840066 19.045789 56.80191 19.1993097 56.6406296 19.2937965 56.4665706 19.2904372L52.65 19.2904372 48.7361671 13.454611 45.5770893 13.454611 45.5770893 19.2904372 41.5893372 19.2904372 41.5893372 1.02838617zM74.845245 10.2099424L74.845245 10.159366C74.845245 7.04697406 72.5498559 4.41700288 69.3129683 4.41700288 66.0760807 4.41700288 63.839049 6.97694524 63.839049 10.1087896L63.839049 10.159366C63.839049 13.2717579 66.1305476 15.8978386 69.3674352 15.8978386 72.6043228 15.8978386 74.845245 13.3417867 74.845245 10.2099424M59.6373199 10.2099424L59.6373199 10.159366C59.6373199 4.96945245 63.7301153.713256484 69.3635447.713256484 74.9969741.713256484 79.0430836 4.91498559 79.0430836 10.1087896L79.0430836 10.159366C79.0430836 15.3492795 74.9463977 19.601585 69.3168588 19.601585 63.6873199 19.601585 59.6528818 15.3998559 59.6528818 10.2099424M89.8119597 10.2371758C91.8233429 10.2371758 92.9943804 9.03501441 92.9943804 7.47103746L92.9943804 7.4204611C92.9943804 5.61916427 91.7455331 4.65432277 89.7341499 4.65432277L86.6217579 4.65432277 86.6217579 10.2371758 89.8119597 10.2371758zM82.6067723 1.02838617L90.076513 1.02838617C94.4299712 1.02838617 97.0793948 3.61167147 97.0793948 7.3426513L97.0793948 7.39322767C97.0793948 11.6221902 93.7919308 13.812536 89.687464 13.812536L86.6334294 13.812536 86.6334294 19.2903458 82.6067723 19.2903458 82.6067723 1.02838617zM99.7482709 11.4626801L99.7482709 1.02838617 103.767147 1.02838617 103.767147 11.3576369C103.767147 14.3338617 105.253314 15.8706052 107.704323 15.8706052 110.155331 15.8706052 111.641499 14.384438 111.641499 11.4899135L111.641499 1.02838617 115.675937 1.02838617 115.675937 11.3342939C115.675937 16.8626801 112.563545 19.5743516 107.669308 19.5743516 102.775072 19.5743516 99.7638329 16.8510086 99.7638329 11.4626801M127.604179 9.89870317C129.549424 9.89870317 130.685447 8.85605187 130.685447 7.31541787L130.685447 7.2648415C130.685447 5.54135447 129.483285 4.65432277 127.526369 4.65432277L123.534726 4.65432277 123.534726 9.89870317 127.604179 9.89870317zM119.519741 1.02838617L127.864841 1.02838617C130.199135 1.02838617 131.988761 1.67809798 133.187032 2.88025937 134.248325 4.00443989 134.809644 5.51017944 134.743228 7.05475504L134.743228 7.10533141C134.739337 10.0543228 133.183141 11.906196 130.848847 12.7543228L134.813256 18.5511527C134.909768 18.6945547 134.919147 18.8795459 134.837635 19.031974 134.756123 19.1844021 134.597061 19.2793176 134.424207 19.2786776L130.611527 19.2786776 126.693804 13.4429395 123.534726 13.4429395 123.534726 19.2786776 119.519741 19.2786776 119.519741 1.02838617z" transform="translate(8 63)"/>
    <path fill="#EEE" fill-rule="nonzero" d="M33.6120126 26.3569503L29.6212231 22.3661608 33.6120126 18.3753714C35.8155048 16.1742528 39.3859498 16.1755356 41.5878599 18.3782369 43.7897699 20.5809382 43.7897699 24.1513834 41.5878599 26.3540847 39.3859498 28.556786 35.8155048 28.5580688 33.6120126 26.3569503M42.1541179 16.1332661C40.5010736 14.4801578 38.259026 13.5514459 35.9212231 13.5514459 33.5834202 13.5514459 31.3413727 14.4801578 29.6883284 16.1332661L23.4554337 22.3661608 29.6883284 28.5990556C31.9151272 30.8258544 35.1607572 31.6955183 38.2026209 30.8804534 41.2444847 30.0653884 43.6204507 27.6894224 44.4355157 24.6475586 45.2505806 21.6056949 44.3809167 18.3600649 42.1541179 16.1332661M26.3567494 11.1240556L22.36596 15.1306345 18.3751705 11.1240556C16.7604105 9.50981503 16.2771378 7.08177058 17.1507294 4.972254 18.024321 2.86273741 20.0827117 1.4872449 22.36596 1.4872449 24.6492082 1.4872449 26.707599 2.86273741 27.5811906 4.972254 28.4547821 7.08177058 27.9715095 9.50981503 26.3567494 11.1240556M16.1330652 2.5819503C14.479957 4.23499458 13.551245 6.47704215 13.551245 8.81484504 13.551245 11.1526479 14.479957 13.3946955 16.1330652 15.0477398L22.36596 21.2806345 28.5988547 15.0477398C30.8256535 12.820941 31.6953175 9.57531097 30.8802525 6.53344722 30.0651876 3.49158347 27.6892215 1.11561742 24.6473578.300552487 21.605494-.514512449 18.359864.355151485 16.1330652 2.5819503M11.1238547 18.3753714L15.1304337 22.3661608 11.1238547 26.3569503C9.50961417 27.9717103 7.08156972 28.454983 4.97205314 27.5813914 2.86253655 26.7077998 1.48704404 24.6494091 1.48704404 22.3661608 1.48704404 20.0829126 2.86253655 18.0245218 4.97205314 17.1509302 7.08156972 16.2773387 9.50961417 16.7606113 11.1238547 18.3753714M2.58174944 28.5990556C4.23376485 30.2541011 6.476198 31.1841511 8.81464418 31.1841511 11.1530904 31.1841511 13.3955235 30.2541011 15.0475389 28.5990556L21.2804337 22.3661608 15.0475389 16.1332661C11.6052062 12.6909335 6.02408221 12.6909335 2.58174953 16.1332662-.860583141 19.5755989-.860583183 25.1567228 2.58174944 28.5990556M18.3751705 33.6082661L22.36596 29.621424 26.3567494 33.6082661C27.9715095 35.2225066 28.4547821 37.6505511 27.5811906 39.7600677 26.707599 41.8695842 24.6492082 43.2450768 22.36596 43.2450768 20.0827117 43.2450768 18.024321 41.8695842 17.1507294 39.7600677 16.2771378 37.6505511 16.7604105 35.2225066 18.3751705 33.6082661M28.5988547 42.1543187C30.2539002 40.5023033 31.1839502 38.2598702 31.1839502 35.921424 31.1839502 33.5829778 30.2539002 31.3405447 28.5988547 29.6885292L22.36596 23.4516871 16.1330652 29.6885292C13.9062664 31.9153281 13.0366025 35.160958 13.8516674 38.2028218 14.6667324 41.2446855 17.0426984 43.6206516 20.0845622 44.4357165 23.1264259 45.2507815 26.3720559 44.3811175 28.5988547 42.1543187" transform="translate(53 11)"/>
  </g>
</svg>
