<svg xmlns="http://www.w3.org/2000/svg" width="150" height="100" viewBox="0 0 150 100">
  <g fill="#EEE" fill-rule="evenodd" transform="translate(23 26)">
    <path d="M109.969254,47.3600846 C104.968161,47.3600846 99.8769044,47.3600846 94.9359208,47.3600846 C94.7976695,47.3600846 94.5452104,46.7529808 94.4730793,46.6267513 C92.4053197,42.8939644 90.3375601,39.1431447 88.2818224,35.4163688 C86.0818224,39.3835819 83.9419317,43.4169153 81.7479427,47.3901393 C76.8249918,47.4021612 71.9441175,47.3660956 67.0632432,47.3781174 C67.6162486,46.3442376 68.2053197,45.3344015 68.7943907,44.3185546 C72.8998552,37.2256585 76.9452104,30.0365874 81.0566858,22.9376803 C76.6867405,15.3038005 72.2506749,7.73003 67.8566858,0.114183114 C67.8446639,0.114183114 67.8146093,0.066095682 67.8446639,0.072106611 C72.8818224,0.072106611 77.91297,0.072106611 82.9501285,0.072106611 C84.8075054,3.4502487 86.6167951,6.87046715 88.4441175,10.272653 C90.343571,6.9005218 92.1769044,3.46227056 94.0583251,0.072106611 C98.9271776,0.072106611 103.790019,0.072106611 108.658872,0.072106611 C108.670893,0.1322159 108.628817,0.198336119 108.598762,0.246423551 C104.337014,7.73604093 99.9730793,15.2497022 95.7173415,22.7513415 C100.447943,30.9622705 105.268708,39.1671885 109.969254,47.3600846 Z"/>
    <path d="M73.4708934,18.4234726 C73.8555929,19.9863141 74.0779973,21.7054398 74.0779973,23.5147295 C74.0779973,29.1589917 72.4430246,33.3425983 70.1708934,36.7447841 C69.7861939,37.3218332 69.3954836,37.8748388 68.9747186,38.4038005 C67.7424781,39.966642 66.2517678,41.3912322 64.5867405,42.5753852 C63.4687076,43.3688278 62.3025874,44.0901393 61.0102377,44.6972431 C58.4375625,45.9054398 55.3299122,46.8491557 51.7473986,46.8491557 C46.1452127,46.8491557 42.0096937,45.1420519 38.6616063,42.7977895 C35.3135188,40.4475163 32.7047756,37.3398661 30.9315515,33.4207404 C29.7413876,30.7939644 28.9599669,27.7644563 28.8698029,24.0737458 C28.8277264,22.2464234 29.0561417,20.4431447 29.3867429,18.8803032 C30.2282729,14.9371339 31.8812783,11.8475163 33.9730817,9.18467481 C36.0648849,6.52784421 38.7157046,4.4480629 41.9195297,2.87921044 C43.1758139,2.26609569 44.5823712,1.74314488 46.1151581,1.36445635 C47.6479451,0.985767825 49.343027,0.72729788 51.1763603,0.72729788 C51.1883822,0.72729788 51.1943931,0.72729788 51.2064149,0.72729788 C52.9976718,0.643144874 54.8971254,0.931669464 56.3878358,1.26227056 C57.9386554,1.60489351 59.3752674,2.12784432 60.6555929,2.70489351 C64.622806,4.49615034 67.5801831,7.17702454 69.9605109,10.525112 C71.5293634,12.719101 72.7075054,15.3518879 73.4708934,18.4234726 Z M55.438109,34.0879535 C55.5823712,33.5109043 55.5402947,32.77156 55.5402947,32.0081721 C55.5402947,26.1835819 55.5402947,20.4792103 55.5402947,14.6365873 C55.5402947,13.8912322 55.4561417,13.314183 55.2397483,12.7731994 C55.0413876,12.2803032 54.7348303,11.8294836 54.3741746,11.4628169 C53.6708958,10.7475163 52.6129724,10.1043469 51.2845571,10.2065327 C50.6413876,10.2546202 50.1064149,10.4589918 49.6375625,10.7535273 C48.7659778,11.3065327 48.1047756,12.1540737 47.8342839,13.2781174 C47.6960324,13.8491556 47.7020434,14.5764781 47.7020434,15.3278442 C47.7020434,21.0742922 47.7020434,26.8988824 47.7020434,32.699429 C47.7020434,33.0721065 47.6840105,33.4327622 47.732098,33.7513415 C47.8583275,34.6650027 48.2670707,35.398336 48.8020434,35.9453305 C49.4933002,36.6486092 50.5632456,37.2376803 51.9457592,37.0874071 C53.7310051,36.8950573 55.0413876,35.7109043 55.438109,34.0879535 Z M29.4829177,12.97156 C24.1572346,12.97156 18.8375625,12.97156 13.5118795,12.97156 C13.4457592,14.9551666 13.4998576,17.1491556 13.4818248,19.1447841 C17.7976718,19.1808497 22.179639,19.1507951 26.5255407,19.1568059 C26.5255407,23.4726529 26.5255407,27.782489 26.5255407,32.098336 C22.1495844,32.1103578 17.7375625,32.0803032 13.38565,32.1103578 C13.3916609,37.2436912 13.4157046,42.2808497 13.4157046,47.414183 C13.4157046,47.4322158 13.4096937,47.4382268 13.4036827,47.4442376 C8.96761715,47.4442376 4.5255409,47.4442376 0.0894753104,47.4442376 C0.0654315946,47.4502486 0.0654315946,47.4322158 0.0473988095,47.4322158 C0.0173441646,31.67156 0.0173441646,15.8087185 0.0413878805,0.0420519661 C0.0413878805,0.0240191792 0.0413878805,-2.4536612e-05 0.0534097385,-2.4536612e-05 C9.56269912,-2.4536612e-05 19.0719888,-2.4536612e-05 28.5752674,-2.4536612e-05 C28.5933002,-2.4536612e-05 28.5993112,-2.4536612e-05 28.6053221,0.0119973213 C28.9058685,4.32784432 29.1943931,8.64970213 29.4829177,12.97156 Z"/>
  </g>
</svg>
