<svg xmlns="http://www.w3.org/2000/svg" width="150" height="100" viewBox="0 0 150 100">
  <path fill="#EEE" d="M87.740146 32.8386861L79.8510949 32.8386861 79.8510949 4.53722628 87.740146 4.53722628 87.740146 32.8386861zM100.978832 4.53722628L93.1766423 4.53722628 93.1766423 32.8386861 100.978832 32.8386861 100.978832 4.53722628zM60.6394161 12.8248175L60.6394161 12.8248175 60.6394161 12.7737226C60.6394161 7.90437956 55.9080292 3.95474453 50.0678832 3.95474453 44.2277372 3.95474453 39.5014599 7.90437956 39.5014599 12.7737226 39.5014599 17.6430657 42.9861314 21.5927007 50.0678832 21.5927007 50.2347932 21.5927007 50.4051095 21.5927007 50.5788321 21.5927007 49.8788321 22.6145985 47.8043796 25.0875912 42.5927007 27.8620438L46.5167883 32.8540146C46.5167883 32.8540146 61.5284672 25.7518248 60.6394161 12.8248175zM52.9751825 15.7218978C44.4167883 18.5321168 45.5306569 9.39635036 50.0883212 10.019708 54.6459854 10.6430657 52.9751825 15.7218978 52.9751825 15.7218978zM76.1313869.434306569L65.8562044 35.2554745 62.1109489 35.2554745 72.4065693.444525547 76.1313869.434306569zM4.59854015 51.2562044L9.14087591 58.649635 13.6729927 51.2664234 17.8014599 51.2664234 17.8014599 68.6386861 14.0306569 68.6386861 14.0306569 57.2751825 9.06934307 64.7043796 4.16423358 57.3313869 4.16423358 68.6233577.480291971 68.6233577.480291971 51.2510949 4.59854015 51.2562044zM42.6948905 51.2562044L47.2372263 58.649635 51.7693431 51.2664234 55.8978102 51.2664234 55.8978102 68.6386861 52.1167883 68.6386861 52.1167883 57.2751825 47.1554745 64.7043796 42.250365 57.3313869 42.250365 68.6233577 38.5766423 68.6233577 38.5766423 51.2510949 42.6948905 51.2562044zM35.0306569 51.2562044L35.0306569 54.6284672 25.7364964 54.6284672 25.7364964 58.2051095 33.8810219 58.2051095 33.8810219 61.5620438 25.7364964 61.5620438 25.7364964 65.2459854 35.1583942 65.2459854 35.1583942 68.6335766 21.9708029 68.6335766 21.9708029 51.2613139 35.0306569 51.2562044zM68.5386861 50.9394161C63.5964342 51.071219 59.684014 55.1617656 59.7722374 60.1049875 59.8604608 65.0482094 63.9163538 68.9965427 68.8601613 68.9519057 73.8039689 68.9072687 77.7879084 64.8863447 77.7868615 59.9423358 77.7167708 54.9074858 73.5838894 50.8797552 68.5489051 50.9394161L68.5386861 50.9394161zM68.5386861 65.3583942C66.3356118 65.4186894 64.3157018 64.1380235 63.4305133 62.119704 62.5453249 60.1013845 62.9714076 57.7479625 64.5080387 56.168109 66.0446698 54.5882555 68.3853702 54.0970702 70.427462 54.9259449 72.4695537 55.7548197 73.8057444 57.7384366 73.8065693 59.9423358 73.8463867 62.8882446 71.4946983 65.3107808 68.5489051 65.3583942L68.5386861 65.3583942zM91.940146 62.3335766L91.940146 62.3335766C94.1552221 61.5181765 95.6248141 59.4056379 95.6189781 57.0452555L95.6189781 56.8970803C95.6189781 53.7929981 93.1026223 51.2766423 89.9985401 51.2766423L81.2408759 51.2766423 81.2408759 68.6489051 85.0474453 68.6489051 85.0474453 63.0386861 88.0160584 63.0386861 91.8226277 68.6233577 96.1912409 68.6233577 91.940146 62.3335766zM85.0116788 54.6693431L89.2883212 54.6693431C90.2069917 54.6277675 91.0742427 55.0941975 91.5460013 55.883582 92.01776 56.6729665 92.01776 57.6576905 91.5460013 58.4470749 91.0742427 59.2364594 90.2069917 59.7028895 89.2883212 59.6613139L85.0218978 59.6613139 85.0116788 54.6693431zM103.048175 68.6029197L99.2467153 68.6029197 99.2467153 51.2306569 103.048175 51.2306569 103.048175 68.6029197zM120.343796 68.6029197L124.354745 68.6029197 116.894891 51.1029197 113.359124 51.1029197 105.89927 68.6029197 109.792701 68.6029197 111.422628 64.6839416 118.749635 64.6839416 120.343796 68.6029197zM112.817518 61.3270073L115.127007 55.7678832 117.385401 61.3270073 112.817518 61.3270073zM139.509489 65.1591241L139.509489 68.6029197 127.037226 68.6029197 127.037226 51.2306569 130.80292 51.2306569 130.80292 65.1540146 139.509489 65.1591241z" transform="translate(5 13)"/>
</svg>
