<svg xmlns="http://www.w3.org/2000/svg" width="150" height="100" viewBox="0 0 150 100">
  <g fill="none" transform="translate(25 19)">
    <path fill="#FFF" d="M50.4990928,62 C23.1643687,62 1,48.1190156 1,31 C1,13.8815879 23.1637639,0 50.4990928,0 C77.8344218,0 100,13.8815879 100,31 C100,48.1190156 77.8350265,62 50.4990928,62"/>
    <path fill="#EEE" stroke="#EEE" stroke-width=".311" d="M99,31 C99,48.1213136 76.8414683,62 49.5021223,62 C41.4446949,62 33.8359803,60.7917137 27.1113513,58.653512 L35.8751983,26.1270014 L40.1664696,26.1270014 L36.2893481,40.6330789 L42.5713279,40.6330789 L46.9978195,24.0594491 L36.4257811,24.0594491 L39.7832446,11.4681522 C40.2034581,9.89273051 41.9122051,7.51903074 44.2430865,7.51601154 C45.6219689,7.51601154 47.3367796,8.2013713 47.4131821,9.07875258 C45.6535001,9.07875258 44.1970025,10.7519966 44.1970025,12.5846546 C44.1970025,14.4173127 45.6528937,15.9281234 47.4131821,15.9281234 C48.5464852,15.9281234 51.1368923,14.65583 50.9859065,11.8195878 C50.891313,10.0642214 49.8647308,6.60723051 44.2436929,6.47861233 C37.7155274,6.33791733 33.2126333,12.134793 31.6027244,18.0017141 C30.6507255,21.4919163 28.288313,29.8188866 26.2703179,37.395886 L21.1125457,56.3951459 C8.34605891,50.7884802 0,41.5044217 0,31 C0,13.8817056 22.1627763,0 49.5021223,0 C76.8414683,0 99,13.8817056 99,31 Z M12.3887191,40.6330789 L14.4437027,32.9824107 C24.9672316,33.1412209 27.0076623,30.6081071 28.4635536,24.0594491 C29.4864976,19.4678406 26.9458127,15.9281234 22.3471124,15.9281234 L9.7837591,15.9281234 L9.2337827,18.002318 L11.9921539,18.002318 L5.95635983,40.6336826 L12.3887191,40.6336826 L12.3887191,40.6330789 Z M18.4245133,18.0017141 C21.7207335,17.873096 22.9922887,18.6532588 21.7207335,24.0588453 C20.065347,31.0205306 18.0564474,30.9112353 14.993679,30.9115135 L18.4245133,18.0017141 Z M96.2125231,26.9892867 C96.2125231,25.1113406 94.8027158,23.5787916 93.0727459,23.5787916 C91.675066,23.5787916 89.7001231,24.4875726 88.2897095,26.7507694 L88.977938,24.0594491 L80.3990335,24.0594491 L79.8490571,26.1270014 L82.1465881,26.1270014 L78.270073,40.6330789 L84.5514464,40.6330789 C84.5514464,40.6330789 86.9138589,31.8840235 86.8950614,31.8653045 C87.8325075,29.1582844 89.5612647,26.0044217 90.0681889,26.4325451 C89.5303399,28.9958511 91.4009874,30.3997819 93.0721395,30.3997819 C94.8021094,30.3997819 96.2125231,28.8738751 96.2125231,26.9892867 Z M67.1468453,32.9824107 L77.7352557,32.9824107 C77.8152964,32.7064553 77.8583486,32.5198684 77.9007945,32.266255 C79.0686606,26.7658654 76.3248421,23.2635864 71.9602002,23.2635864 C67.2353752,23.2635864 62.8707332,24.8541042 61.0492017,32.266255 C59.8388897,37.1724648 62.4747744,41.1101133 67.1468453,41.2719428 C71.3459487,41.4120339 75.3116001,40.2502435 77.2901811,34.5753438 L70.85479,34.5753438 L70.4709587,36.0100706 C69.7057213,38.879524 68.6797454,39.1971444 67.5464424,39.1971444 C66.4101074,39.1971444 65.860131,37.7630215 66.3361304,36.0100706 L67.1468453,32.9824107 Z M68.3262325,28.5218357 C68.7992001,26.7658654 69.8585262,25.2550547 71.2531742,25.3317426 C72.6175038,25.3317426 72.9364538,26.7658654 72.4604544,28.5218357 L71.8650003,30.7518213 L67.7271402,30.7518213 L68.3262325,28.5218357 Z M58.7510643,38.5619035 L53.387733,38.5619035 L62.6245475,24.0588453 L49.1431521,24.0588453 L48.5925692,26.1263976 L53.9565069,26.1263976 L44.8700718,40.6330789 L58.2016942,40.6330789 L58.7510643,38.5619035 Z"/>
  </g>
</svg>
